<svg width="556" height="540" viewBox="0 0 556 540" fill="none" xmlns="http://www.w3.org/2000/svg">
<path d="M326.018 418.263C281.791 401.836 236.3 399.309 194.6 410.682C165.537 418.264 137.737 433.427 112.464 452.382L94.7728 467.545L89.7183 472.6L101.091 482.709C102.355 482.709 102.355 483.973 103.618 485.236C106.146 487.764 108.673 489.027 112.464 491.554L120.045 496.609L127.627 490.291C128.891 489.027 131.418 486.5 133.946 485.236C156.691 466.282 181.964 453.645 208.5 447.327C242.618 438.482 279.264 439.745 315.909 453.645C346.236 465.018 408.155 478.918 482.709 447.327L485.237 446.063L489.027 442.273C489.027 441.009 490.291 441.009 491.555 439.745C497.873 432.163 504.191 424.582 509.246 415.736L534.518 376.563L494.082 399.309C434.691 432.163 380.355 438.482 326.018 418.263Z" fill="#201B21"/>
<path d="M152.9 281.791C187.018 272.945 223.664 274.209 260.309 288.109C300.746 303.273 404.364 324.754 520.618 219.873L539.573 200.918L540.837 199.654L545.891 194.6L543.364 188.282C542.1 183.227 539.573 176.909 537.045 170.591L530.727 152.9L518.091 165.536C516.827 168.063 514.3 169.327 511.773 171.854C456.173 228.718 370.245 286.845 271.682 251.464C227.455 235.036 181.964 232.509 140.264 243.882C99.8274 255.254 64.4455 276.736 31.5909 307.063V305.8L12.6364 326.018C12.6364 327.282 11.373 327.282 10.1093 328.545L6.31821 332.336L7.58192 337.391C8.84556 343.709 11.3728 350.027 12.6364 356.345L20.2183 376.563L32.8546 360.136C34.1183 357.609 36.6455 356.345 37.9091 353.818C64.4455 329.809 101.091 295.691 152.9 281.791Z" fill="#201B21"/>
<path d="M30.3276 259.045C59.3912 228.718 92.2455 209.763 127.627 199.654C161.746 190.809 198.391 192.073 235.036 205.973C348.764 247.673 447.328 179.436 490.291 142.791L506.718 126.364L513.036 121.309L507.982 113.727C504.191 109.936 501.664 104.882 497.873 99.8272L490.291 89.7179L481.446 98.5635C480.182 99.8271 477.655 102.354 476.391 103.618C423.318 154.163 341.182 205.973 247.673 170.591C203.446 154.164 157.955 151.636 116.255 163.009C89.7183 170.591 64.4455 183.227 39.1728 199.654L12.6364 221.136C10.1091 223.664 8.84545 224.927 6.31818 227.455L3.79114 229.982V233.773C2.5275 242.618 2.52735 251.464 1.26371 259.045L0 290.636L21.482 267.891C24.0092 265.363 26.5367 261.573 30.3276 259.045Z" fill="#201B21"/>
<path d="M362.664 504.191L360.136 511.773L362.664 504.191C358.873 502.927 356.346 501.663 352.555 500.4C308.328 483.972 262.836 481.446 221.136 492.818C212.291 495.346 203.446 497.873 194.6 501.663L164.273 515.564L156.691 519.354L181.964 528.2C189.546 530.727 197.127 533.255 204.709 535.782L208.5 537.046L212.291 535.782C216.082 534.518 219.873 531.991 223.664 531.991C226.191 531.991 228.718 530.727 231.246 529.464C261.573 521.882 294.427 521.882 329.809 533.254C333.6 534.518 336.128 535.782 339.918 537.046L346.237 539.573L350.027 538.309C358.873 535.782 368.982 533.255 376.564 529.464L411.945 516.827L375.3 507.982C371.509 506.718 366.455 505.455 362.664 504.191Z" fill="#201B21"/>
<path d="M556 242.618L537.046 261.572C534.518 264.1 531.991 266.627 529.464 269.154C477.655 318.436 394.255 371.509 300.746 336.127C256.518 319.7 211.028 317.173 169.328 328.545C130.155 339.918 94.7728 360.136 63.1818 390.464L46.7547 408.154L41.7003 414.473L46.7547 422.054C50.5456 427.109 53.0731 430.9 55.6003 435.955L63.1818 447.327L72.0275 435.955C73.2911 434.691 75.8183 432.163 77.0819 430.9C107.409 398.045 140.264 377.827 178.173 367.718C212.291 358.872 248.936 360.136 285.582 374.036C317.173 385.409 350.028 389.2 382.882 385.409C441.009 379.091 499.137 346.236 542.1 309.591C544.628 307.064 547.155 305.8 549.682 303.273L553.473 299.482V295.691C553.473 288.109 554.737 279.264 554.737 271.682L556 242.618Z" fill="#201B21"/>
<path d="M75.8182 126.364L72.0274 118.782L75.8182 126.364C83.4 122.573 92.2458 120.045 99.8276 117.518C133.946 108.673 170.591 109.936 207.237 123.836C231.246 132.682 255.255 136.473 281.791 136.473C334.864 136.473 387.936 117.518 437.218 80.8727L456.173 65.7089L462.491 60.6544L451.118 51.8088C447.327 48.0179 442.273 44.2271 437.218 41.6998L429.636 36.6454L423.318 41.6998C420.791 42.9635 419.527 45.4907 417 46.7543C350.027 97.2998 283.055 111.2 219.873 87.1908C174.382 70.7636 128.891 66.9727 83.4001 80.8727C79.6092 82.1363 75.8182 83.3998 70.7637 84.6634L68.2367 85.9271L64.4455 89.7179C64.4455 90.9815 63.1821 90.9817 61.9185 92.2453C56.8639 99.8271 50.5455 106.145 45.491 113.727L21.482 150.373L60.6548 130.154C66.9729 130.154 72.0273 127.627 75.8182 126.364Z" fill="#201B21"/>
<path d="M179.437 40.4361L183.227 41.6998C199.655 48.018 224.927 54.3362 256.518 54.3362C289.373 54.3362 320.964 46.7543 352.555 34.1179L391.727 15.1634L365.191 6.31818C357.609 3.79091 350.027 1.26364 341.182 0H337.391L333.6 1.26333C329.809 2.52696 326.018 5.05455 322.227 6.31818C284.318 20.2182 246.409 22.7455 209.764 12.6364C205.973 11.3727 202.182 10.1089 198.391 8.84522L194.6 7.58151L190.809 8.84522C183.227 11.3725 175.646 13.8999 168.064 17.6908L139 30.3272L169.328 39.1724C171.855 37.9088 175.646 39.1725 179.437 40.4361Z" fill="#201B21"/>
</svg>
